<?xml version="1.0" encoding="iso-8859-1"?>
<!-- Generator: Adobe Illustrator 19.0.0, SVG Export Plug-In . SVG Version: 6.00 Build 0)  -->
<svg version="1.1" id="Layer_1" xmlns="http://www.w3.org/2000/svg" xmlns:xlink="http://www.w3.org/1999/xlink" x="0px" y="0px"
	 viewBox="0 0 277.573 277.573" style="enable-background:new 0 0 277.573 277.573;" xml:space="preserve">
<g>
	<g>
		<path d="M269.723,223.712c-0.309-23.982-19.903-43.399-43.957-43.399h-17.354l-10.496-10.496
			c-18.043-18.043-23.586-45.013-14.122-68.709l9.387-23.502c3.228-8.084,1.337-17.285-4.818-23.439l-40.286-40.286
			c-4.469-4.47-10.412-6.931-16.732-6.931c-6.32,0-12.263,2.461-16.732,6.931L35.842,92.653L35.09,91.91
			c-3.521-3.477-9.188-3.46-12.688,0.04L2.636,111.716c-3.515,3.515-3.514,9.213,0,12.728l126.161,126.16
			c12.909,12.91,30.073,20.019,48.329,20.019h91.447c4.971,0,9-4.029,9-9v-28.992C277.572,228.051,274.149,224.279,269.723,223.712z
			 M127.341,26.608c1.069-1.07,2.491-1.659,4.004-1.659s2.935,0.589,4.005,1.659l40.286,40.286c1.06,1.06,1.385,2.644,0.83,4.036
			l-9.387,23.501c-1.58,3.955-2.826,7.983-3.761,12.046h-22.765c-4.971,0-9,4.029-9,9s4.029,9,9,9h20.691
			c-0.005,1.349,0.025,2.695,0.087,4.04h-13.778c-4.971,0-9,4.029-9,9c0,4.971,4.029,9,9,9h16.636
			c0.375,1.357,0.79,2.703,1.235,4.04h-10.871c-4.971,0-9,4.029-9,9c0,4.971,4.029,9,9,9h19.418
			c3.173,4.991,6.917,9.688,11.218,13.989l13.132,13.132c1.688,1.688,3.977,2.636,6.364,2.636h21.082
			c14.101,0,25.605,11.299,25.955,25.317h-62.575c-13.449,0-26.092-5.237-35.642-14.786L48.65,105.3L127.341,26.608z
			 M259.572,252.623h-82.447c-13.448,0-26.091-5.237-35.601-14.747L21.728,118.08l7.078-7.079l112.011,110.611
			c12.909,12.909,30.073,20.019,48.329,20.019h70.426V252.623z"/>
	</g>
</g>
<g>
</g>
<g>
</g>
<g>
</g>
<g>
</g>
<g>
</g>
<g>
</g>
<g>
</g>
<g>
</g>
<g>
</g>
<g>
</g>
<g>
</g>
<g>
</g>
<g>
</g>
<g>
</g>
<g>
</g>
</svg>
